<svg version="1.1" xmlns="http://www.w3.org/2000/svg" xmlns:xlink="http://www.w3.org/1999/xlink" width="4087.91254" height="3118.21085" viewBox="0,0,4087.91254,3118.21085"><g transform="translate(1807.5,1379.41085)"><g data-paper-data="{&quot;isPaintingLayer&quot;:true}" fill="#ffffff" fill-rule="nonzero" stroke="none" stroke-width="1" stroke-linecap="butt" stroke-linejoin="miter" stroke-miterlimit="10" stroke-dasharray="" stroke-dashoffset="0" style="mix-blend-mode: normal"><path d="M-348.7,-1379.4c2.7,-0.2 8,2.4 10.4,5c2.8,3.2 25.4,44.7 45.3,83.5c22.6,43.9 43.4,88 58,122.9l3.4,8.1l22.6,-3.3c292.1,-42.3 590.4,-42.3 888.8,0l23.3,3.3l1.3,-3c27.3,-63.5 67.3,-146.5 93.6,-194.1c9,-16.4 12.6,-21 17.2,-21.9c6.3,-1.2 125.4,22 191.3,37.4c179.9,41.9 354.6,97.7 524.5,167.5c34.2,14.1 97,41.5 120.3,52.5c4.6,2.2 5.9,3.9 28.6,37.9c113.9,170.6 215,351.2 294.8,526.6c96.2,211.4 166.5,416.8 218.3,637.5c40,170.3 67.5,355.1 79.5,533c10.5,158 10.6,317.3 0,479c-2.6,39.9 -9.2,120.2 -10.1,123.2c-0.8,2.8 -6.9,7.6 -34.6,27.5c-103.8,74.6 -214.8,145.8 -322.3,206.6c-204.6,115.6 -421,209.1 -653.3,282.2c-19.5,6.2 -21.7,6.7 -25.1,5.6c-2.1,-0.6 -4.6,-2.1 -5.8,-3.3c-3.8,-4.2 -37.2,-52.6 -60.2,-87.1c-50.6,-75.9 -97.8,-155.2 -139.6,-234.5c-11.3,-21.5 -11.7,-22.5 -11.3,-27.3c0.4,-3.3 1.3,-5.8 2.8,-7.4c1.4,-1.5 9.6,-5.3 21.9,-10.1c42.6,-16.6 91.3,-37.5 135.6,-58c50.3,-23.3 135.5,-68.2 169.3,-89.2c2.4,-1.5 4.2,-8.6 3.2,-12.4c-1.2,-4.3 -2.9,-5.8 -21.5,-19.9c-8.2,-6.3 -22.4,-17.4 -31.4,-24.6c-9.7,-7.9 -18,-13.8 -20.2,-14.4c-3.5,-1.1 -4.8,-0.6 -38.5,14.4c-267.8,119.4 -548.2,190.1 -832.4,209.7c-103,7.1 -219.6,7.1 -324,0c-284.2,-19.4 -566.5,-90.2 -839.3,-210.4c-23.6,-10.4 -31.8,-13.6 -35,-13.6c-3.9,0 -5.4,1 -18.7,11.6c-8,6.4 -22.8,18 -33,25.9c-10.2,7.8 -19.5,15.4 -20.8,16.7c-3.2,3.5 -3.8,8.7 -1.7,13.2c1.5,3.1 4.5,5.2 24.4,16.5c85.6,48.7 188.6,97.7 284.5,135.2c11,4.2 17,7.2 19.5,9.5c3.3,3 3.6,3.7 3.5,8.6c0,4.8 -1.2,7.6 -12.8,29.7c-56.2,107.5 -110.3,195.1 -185.7,301.1c-11.3,15.8 -12.9,17.6 -17.1,19.4l-4.6,1.9l-15.4,-4.7c-30.2,-9.4 -113.9,-37.6 -146.3,-49.4c-127.7,-46.6 -236.3,-93 -353,-151.1c-122.1,-60.6 -211.5,-111.6 -335,-190.6c-36.5,-23.4 -91.8,-61.1 -138,-94c-38.2,-27.3 -39.8,-28.6 -41.7,-32.5c-1.8,-3.9 -5.9,-50.1 -10.3,-116c-6,-91.2 -6,-92.4 -6,-245c0,-152.9 0.2,-160.9 6.5,-249c11.7,-162.5 33.8,-316 68.5,-476.5c51.2,-236.4 130.4,-471.3 236.3,-700.5c69.4,-150.4 145.9,-291.1 237.4,-437c36.5,-58.1 70.7,-110.1 73.9,-112.1c5.6,-3.6 83.8,-37.9 123.9,-54.4c118.4,-48.6 239.5,-90.7 361,-125.4c105,-29.9 204.5,-53 328.5,-76c11.6,-2.1 21.8,-3.9 22.8,-4zM-543,-61.4c-49.8,15.7 -101.8,47.1 -140.3,84.8c-62.7,61.2 -105.6,145.5 -120.2,235.8c-12,74.1 -6.7,145.7 16.1,216.3c19.8,61.6 55.6,120.9 99.7,165.1c30,30 58.7,51 95.2,69.5c52,26.2 102.8,37.8 159.4,36.1c52.7,-1.6 98.7,-13.7 146.6,-38.6c53.8,-28 102.3,-72.3 137.9,-126.1c12.1,-18.3 16.9,-26.6 26.4,-45.6c23.4,-46.7 37.4,-95.1 44.4,-152.9c2.1,-17.8 1.8,-87.1 -0.5,-105.5c-11.7,-93.9 -50.1,-177.6 -111.3,-242.7c-11.2,-11.9 -24.4,-23.9 -38.9,-35.4c-52.3,-41.3 -112.7,-66.6 -176.2,-73.9c-45.7,-5.2 -94.9,-0.5 -138.3,13.1zM890,-75.8c-46.3,4.7 -80.7,14 -118.4,32.2c-74.7,35.8 -135.6,97.1 -175.4,176.8c-27.9,55.7 -43,114.1 -46.3,179.7c-3.9,75.1 11.1,149.8 43.5,217.1c20,41.6 47.3,80.1 79,111.7c29.3,29.2 58.1,50.2 94.1,68.4c46.8,23.6 89.4,34.6 140.5,36.1c23.5,0.7 42.7,-0.6 64.8,-4.3c72.5,-12 140.7,-48.7 194.7,-104.5c28,-28.9 55.4,-69 73.5,-107.4c15.3,-32.3 27.7,-70 34.4,-104c6.2,-31.7 7.6,-45.5 8.3,-83c0.9,-50.9 -2.2,-80 -12.8,-123c-14.6,-58.9 -42.1,-114.3 -80.8,-162.5c-59.2,-73.8 -144.4,-121.7 -234.8,-132c-16.5,-1.8 -51.9,-2.6 -64.3,-1.3z"/></g></g></svg>